
<svg xmlns="http://www.w3.org/2000/svg" version="1.1" xmlns:xlink="http://www.w3.org/1999/xlink" xmlns:svgjs="http://svgjs.dev/svgjs" width="2000" height="1070" viewBox="0 0 2000 1070"><g transform="matrix(1,0,0,1,-1.2112696095522324,-0.032861101460980535)"><svg viewBox="0 0 396 212" data-background-color="#ffffff" preserveAspectRatio="xMidYMid meet" height="1070" width="2000" xmlns="http://www.w3.org/2000/svg" xmlns:xlink="http://www.w3.org/1999/xlink"><g id="tight-bounds" transform="matrix(1,0,0,1,0.24008861730862918,0.006568679651138609)"><svg viewBox="0 0 395.52 211.98692052267626" height="211.98692052267626" width="395.52"><g><svg viewBox="0 0 395.52 211.98692052267626" height="211.98692052267626" width="395.52"><g><svg viewBox="0 0 395.52 211.98692052267626" height="211.98692052267626" width="395.52"><g><svg viewBox="0 0 395.52 211.98692052267626" height="211.98692052267626" width="395.52" id="textblock"><g><svg viewBox="0 0 395.52 164.77704494081533" height="164.77704494081533" width="395.52"><path d="M394.594 35.342C392.735 18.238 387.435 13.483 387.435 13.483 371.165-4.134 350.86-0.337 332.619 2.194 300.414 2.297 268.339 6.06 236.208 8.078 168.767 8.386 100.749 3.323 33.643 15.809 27.339 19.64-6.54 16.562 1.121 37.531 3.129 46.254 10.456 55.934 10.232 63.939 11.236 65.342 12.631 62.126 13.226 64.144 15.309 69.583 18.711 67.018 21.501 70.233 17.614 78.819 20.403 85.969 23.062 93.46 18.377 95.41 12.371 94.486 9.675 100.952 9.396 105.638 7.89 104.749 6.235 104.543 5.026 104.407 2.59 104.92 2.999 106.391 4.394 111.419-1.594 114.327 2.162 119.253-0.422 124.589 3.948 129.207 3.353 134.988 3.278 136.151 3.687 137.143 4.338 137.417 7.22 138.888 3.018 141.761 3.464 144.874 33.029 166.151 65.104 151.442 95.394 161.225 103.259 154.384 97.346 163.654 100.489 162.218 102.943 160.541 104.728 167.485 107.499 163.552 107.927 162.423 107.276 159.755 108.8 160.268 109.6 160.541 110.307 160.473 110.418 158.899 110.586 156.539 109.117 158.01 108.726 156.778 112.947 150.553 111.906 165.365 115.866 164.749 115.68 162.936 114.528 160.336 116.889 160.678 119.232 158.078 119.306 155.923 121.389 161.773 121.463 163.038 121.835 163.928 122.43 164.544 128.938 158.181 135.409 166.801 142.233 163.928 146.417 160.781 150.433 165.638 154.672 164.441 156.16 163.483 157.666 161.773 159.098 164.646 176.632 165.262 195.319 162.696 211.943 164.749 256.364 160.918 303.835 166.322 350.674 161.26 361.719 159.31 373.192 156.539 383.958 154.316 383.958 154.316 392.679 148.227 392.679 120.861S394.538 96.915 394.817 75.125C395.096 53.335 396.398 52.445 394.538 35.342Z" opacity="1" fill="#0080ff" data-fill-palette-color="tertiary"></path><g transform="matrix(1,0,0,1,55.76832,26.068561146666667)"><svg width="283.98335999999995" viewBox="2.4000000953674316 -40.849998474121094 104.23999786376953 41.349998474121094" height="112.639922647482" data-palette-color="#ffffff"><path d="M12.8 0.5L12.8 0.5Q9 0.5 6.73-1.13 4.45-2.75 3.43-5.85 2.4-8.95 2.4-13.3L2.4-13.3 2.4-26.85Q2.4-31.3 3.33-34.43 4.25-37.55 6.63-39.2 9-40.85 13.25-40.85L13.25-40.85Q17.05-40.85 19.38-39.58 21.7-38.3 22.75-35.68 23.8-33.05 23.8-29.05L23.8-29.05 23.8-27.55 18.5-27.55 18.5-28.8Q18.5-31.45 18.15-33.13 17.8-34.8 16.73-35.63 15.65-36.45 13.35-36.45L13.35-36.45Q10.85-36.45 9.73-35.3 8.6-34.15 8.33-32.18 8.05-30.2 8.05-27.7L8.05-27.7 8.05-12.7Q8.05-9.8 8.47-7.85 8.9-5.9 10.1-4.95 11.3-4 13.5-4L13.5-4Q15.7-4 16.9-5.05 18.1-6.1 18.55-8.15 19-10.2 19-13.25L19-13.25 19-16.05 13.85-16.05 13.85-20.05 24.1-20.05 24.1 0 20.55 0 20-4.65Q19.2-2.4 17.5-0.95 15.8 0.5 12.8 0.5ZM40.25 0.45L40.25 0.45Q36.15 0.45 33.7-1.15 31.25-2.75 30.2-5.73 29.15-8.7 29.15-12.7L29.15-12.7 29.15-28.05Q29.15-32.05 30.22-34.93 31.3-37.8 33.72-39.33 36.15-40.85 40.25-40.85L40.25-40.85Q44.35-40.85 46.75-39.3 49.15-37.75 50.22-34.9 51.3-32.05 51.3-28.05L51.3-28.05 51.3-12.65Q51.3-8.7 50.22-5.75 49.15-2.8 46.75-1.18 44.35 0.45 40.25 0.45ZM40.25-4L40.25-4Q42.5-4 43.65-4.93 44.8-5.85 45.2-7.53 45.6-9.2 45.6-11.45L45.6-11.45 45.6-29.2Q45.6-31.45 45.2-33.08 44.8-34.7 43.65-35.58 42.5-36.45 40.25-36.45L40.25-36.45Q38-36.45 36.82-35.58 35.65-34.7 35.25-33.08 34.85-31.45 34.85-29.2L34.85-29.2 34.85-11.45Q34.85-9.2 35.25-7.53 35.65-5.85 36.82-4.93 38-4 40.25-4ZM66.95 0L61.3 0 61.3-36.3 54.45-36.3 54.45-40.5 73.6-40.5 73.6-36.3 66.95-36.3 66.95 0ZM83.34 0L77.79 0 77.79-40.5 83.34-40.5 83.34 0ZM99.99 0L94.34 0 94.34-36.3 87.49-36.3 87.49-40.5 106.64-40.5 106.64-36.3 99.99-36.3 99.99 0Z" opacity="1" transform="matrix(1,0,0,1,0,0)" fill="#ffffff" className="undefined-text-0" data-fill-palette-color="quaternary" id="text-0"></path></svg></g></svg></g><g transform="matrix(1,0,0,1,75.54432,191.3686273197423)"><svg viewBox="0 0 244.43135999999998 20.618293202933984" height="20.618293202933984" width="244.43135999999998"><g transform="matrix(1,0,0,1,0,0)"><svg width="244.43135999999998" viewBox="0.8500000238418579 -39.060001373291016 599.0700073242188 50.53000259399414" height="20.618293202933984" data-palette-color="#0080ff"><path d="M21.26-0.32L21.26-0.32Q20 0.49 18.44 0.49 16.89 0.49 15.58-0.32L15.58-0.32Q14.23 0.49 13.11 0.49 11.99 0.49 11.3 0.31 10.62 0.12 10.11-0.2L10.11-0.2Q9.06-0.83 9.06-1.78L9.06-1.78Q9.06-2.27 9.33-2.64L9.33-2.64Q9.86-2.22 10.75-2.22 11.65-2.22 12.56-2.69 13.48-3.15 13.94-4.13L13.94-4.13 13.94-16.02Q13.94-17.14 13.48-17.68L13.48-17.68Q12.74-18.58 10.96-19.46L10.96-19.46Q12.62-20.21 13.11-20.8L13.11-20.8Q13.94-21.75 13.94-22.95L13.94-22.95 13.94-34.28Q13.13-34.57 12.02-34.57 10.91-34.57 9.69-33.98 8.47-33.4 7.5-32.28L7.5-32.28Q5.32-29.74 5.32-25.63L5.32-25.63Q5.32-23.27 6.1-22.14L6.1-22.14Q5.81-21.53 5-21.53 4.2-21.53 3.56-21.9 2.93-22.27 2.47-22.9L2.47-22.9Q1.51-24.17 1.51-25.63 1.51-27.1 2.05-28.13L2.05-28.13Q1.15-29.2 1.15-30.55 1.15-31.91 1.88-32.79L1.88-32.79Q0.85-33.89 0.85-35.74L0.85-35.74Q0.85-37.89 2.83-38.62L2.83-38.62Q3.42-38.84 3.86-38.84L3.86-38.84Q4.69-38.84 5.1-38.48L5.1-38.48Q4.93-37.89 4.93-37.65L4.93-37.65Q4.93-36.67 5.62-36.67L5.62-36.67Q5.98-36.67 6.37-36.77L6.37-36.77 7.47-37.08Q10.33-37.84 12.23-37.84 14.14-37.84 15.58-37.01L15.58-37.01Q16.82-37.84 18.41-37.84 20-37.84 21.29-37.01L21.29-37.01Q22.68-37.84 24.17-37.84L24.17-37.84Q26.54-37.84 28.32-37.35L28.32-37.35 30.49-36.77Q30.88-36.67 31.25-36.67L31.25-36.67Q31.93-36.67 31.93-37.65L31.93-37.65Q31.93-37.89 31.76-38.48L31.76-38.48Q32.18-38.84 32.81-38.84 33.45-38.84 34.03-38.62 34.62-38.4 35.06-37.99L35.06-37.99Q36.01-37.13 36.01-35.53 36.01-33.94 34.99-32.79L34.99-32.79Q35.72-31.91 35.72-30.57 35.72-29.22 34.79-28.13L34.79-28.13Q35.35-27.12 35.35-26.12 35.35-25.12 35.11-24.32 34.86-23.51 34.4-22.9L34.4-22.9Q33.4-21.53 31.88-21.53L31.88-21.53Q31.05-21.53 30.76-22.14L30.76-22.14Q31.54-23.27 31.54-25.52 31.54-27.78 30.94-29.46 30.35-31.13 29.37-32.28L29.37-32.28Q27.39-34.57 24.71-34.57L24.71-34.57Q23.68-34.57 22.92-34.28L22.92-34.28 22.92-22.95Q22.92-21.75 23.44-21.17L23.44-21.17Q24.24-20.21 25.9-19.46L25.9-19.46Q24.12-18.58 23.63-18.02L23.63-18.02Q22.92-17.14 22.92-16.02L22.92-16.02 22.92-4.13Q23.36-3.15 24.28-2.69 25.2-2.22 26.1-2.22 27-2.22 27.54-2.64L27.54-2.64Q27.81-2.27 27.81-1.79 27.81-1.32 27.53-0.9 27.25-0.49 26.76-0.2L26.76-0.2Q25.63 0.49 24.13 0.49 22.63 0.49 21.26-0.32ZM16.28-9.64L16.28-6.47Q17.5-6.93 17.63-9.67L17.63-9.67Q17.77-12.4 17.77-17.24 17.77-22.07 17.76-23.67 17.75-25.27 17.72-26.25L17.72-26.25Q17.65-29.13 17.18-29.72 16.7-30.32 16.28-30.52L16.28-30.52Q16.28-22.02 15.99-20.85L15.99-20.85Q15.65-19.87 14.33-19.46L14.33-19.46Q15.8-18.95 15.99-18.21L15.99-18.21Q16.28-17.04 16.28-9.64L16.28-9.64ZM56.1-2.32L56.1-2.32Q53.88 0.61 49.44 0.61L49.44 0.61Q44.02 0.61 41.31-2.64L41.31-2.64Q40.13-4.03 39.69-5.74L39.69-5.74Q39.45-6.76 38.84-7.31 38.23-7.86 37.33-8.3L37.33-8.3Q39.08-9.11 39.84-11.33L39.84-11.33Q40.65-13.67 42.53-14.72L42.53-14.72Q44.55-15.82 46.99-15.88 49.44-15.94 50.61-16.04 51.78-16.14 52.68-16.36L52.68-16.36Q54.37-16.75 55.32-17.8L55.32-17.8 55.32-21.46Q55.32-23.88 54.33-25 53.34-26.12 51.33-26.12 49.31-26.12 48.35-25.38 47.39-24.63 47.39-23.39L47.39-23.39Q47.39-21.48 49.34-21.53L49.34-21.53Q48.95-19.63 47.29-19.63L47.29-19.63Q46.8-19.63 46.34-19.8L46.34-19.8 46.34-19.73Q46.34-19.09 46.92-18.92L46.92-18.92Q46.31-17.99 44.87-18.02 43.43-18.04 42.62-19.56L42.62-19.56Q42.26-19.46 41.78-19.46 41.31-19.46 40.73-19.78 40.16-20.09 39.82-20.65L39.82-20.65Q41.04-21.39 41.31-22.92L41.31-22.92Q41.6-24.8 44.31-26.73L44.31-26.73Q47.58-29.05 52.66-29.05L52.66-29.05Q61.08-29.05 62.94-23.88L62.94-23.88Q63.55-22.14 63.55-19.78L63.55-19.78 63.55-17.8Q63.55-16.6 64.15-15.84 64.74-15.09 66.18-14.6L66.18-14.6Q64.65-13.89 64.21-13.33L64.21-13.33Q63.55-12.48 63.55-11.38L63.55-11.38 63.55-4.05Q64.26-2.22 65.57-2.22L65.57-2.22Q66.4-2.22 66.94-2.64L66.94-2.64Q67.28-2.17 67.28-1.48 67.28-0.78 66.59-0.15 65.89 0.49 64.5 0.49 63.11 0.49 61.91-0.29L61.91-0.29Q60.86 0.49 60.04 0.49 59.23 0.49 58.63 0.33 58.03 0.17 57.52-0.17L57.52-0.17Q56.37-0.93 56.1-2.32ZM57.64-22.73L57.64-6.47Q59.06-7.03 59.13-11.87L59.13-11.87Q59.13-12.89 59.13-14.21 59.13-15.53 59.12-16.47 59.1-17.41 59.08-18.26L59.08-18.26Q58.98-21.34 58.52-21.94 58.05-22.53 57.64-22.73L57.64-22.73ZM48.63-8.2L48.63-8.2Q48.63-7.18 48.85-6.2 49.07-5.22 49.51-4.49L49.51-4.49Q50.49-2.95 52.27-2.95L52.27-2.95Q53.61-2.95 54.49-4.05L54.49-4.05Q55.32-5.13 55.32-6.81L55.32-6.81 55.32-14.77Q53.76-13.87 51.32-13.53L51.32-13.53Q48.63-13.11 48.63-8.2ZM44.97-2.71L44.97-2.71Q45.21-2.88 45.21-3.15L45.21-3.15Q45.21-3.52 44.87-4.17L44.87-4.17Q43.65-6.42 43.65-7.86 43.65-9.3 43.76-9.94 43.87-10.57 44.05-11.02 44.24-11.47 44.47-11.82 44.7-12.16 44.87-12.43L44.87-12.43Q45.19-12.99 45.19-13.2 45.19-13.4 44.97-13.55L44.97-13.55Q43.97-13.09 43.5-12.45L43.5-12.45Q42.67-11.33 42.28-9.55L42.28-9.55Q42.19-9.03 40.57-8.3L40.57-8.3Q42.14-7.59 42.28-7.06L42.28-7.06Q43.11-4.15 44.97-2.71ZM74.85-0.29L74.85-0.29Q73.73 0.49 72.3 0.49 70.87 0.49 70.17-0.15 69.48-0.78 69.48-1.37L69.48-1.37Q69.48-2.17 69.82-2.64L69.82-2.64Q70.36-2.22 71.19-2.22L71.19-2.22Q72.6-2.22 73.21-3.86L73.21-3.86 73.21-11.35Q73.21-12.43 72.77-12.92L72.77-12.92Q72.09-13.67 70.23-14.58L70.23-14.58Q71.94-15.36 72.41-15.82L72.41-15.82Q73.21-16.63 73.21-17.8L73.21-17.8 73.21-31.62Q73.21-34.4 70.94-34.4L70.94-34.4Q70.11-34.4 69.58-33.98L69.58-33.98Q69.23-34.45 69.23-34.95 69.23-35.45 69.49-35.91 69.75-36.38 70.28-36.77L70.28-36.77Q71.43-37.6 73.19-37.6 74.95-37.6 75.92-37.38L75.92-37.38Q77.27-39.06 78.95-39.06L78.95-39.06Q81.46-39.06 81.46-36.43L81.46-36.43 81.46-15.99 88.52-22.51Q90.13-24.17 90.13-24.9 90.13-25.63 89.2-25.63 88.28-25.63 87.47-25.17L87.47-25.17Q87.2-25.61 87.2-26.31 87.2-27 87.93-27.66 88.67-28.32 90.01-28.32 91.35-28.32 92.38-27.49L92.38-27.49Q93.33-28.32 94.45-28.32 95.58-28.32 96.41-27.66L96.41-27.66Q97.24-28.32 98.36-28.32 99.48-28.32 100.23-27.73 100.97-27.15 100.97-26.17L100.97-26.17Q100.97-25.27 100.73-24.93L100.73-24.93Q100.07-25.59 99.1-25.59 98.14-25.59 97.54-25.31 96.94-25.02 96.24-24.5 95.53-23.97 94.67-23.22L94.67-23.22 90.62-19.7 98.07-5.05Q98.75-3.59 99.27-2.91 99.8-2.22 100.62-2.22 101.44-2.22 101.97-2.64L101.97-2.64Q102.31-2.17 102.31-1.48 102.31-0.78 101.62-0.15 100.92 0.49 99.41 0.49 97.9 0.49 96.48-0.34L96.48-0.34Q95.33 0.49 93.95 0.49 92.57 0.49 91.55-0.24L91.55-0.24Q90.6 0.49 89.41 0.49 88.23 0.49 87.52-0.09 86.81-0.66 86.81-1.54 86.81-2.42 87.18-2.73L87.18-2.73Q88.13-2 89.08-2.49L89.08-2.49Q89.42-2.66 89.69-3.15L89.69-3.15 84.52-14.4 81.46-11.74 81.46-3.49Q81.93-2.29 83-2.29L83-2.29Q83.56-2.29 84.13-2.73L84.13-2.73Q84.49-2.42 84.49-1.53 84.49-0.63 83.78-0.07 83.08 0.49 81.88 0.49 80.68 0.49 79.73-0.24L79.73-0.24Q78.73 0.49 77.36 0.49 76 0.49 74.85-0.29ZM76.9-13.65L76.9-15.11 76.92-18.36 76.92-23.14Q76.92-27.69 76.75-28.44L76.75-28.44Q76.41-29.93 75.51-30.52L75.51-30.52 75.51-22.29Q75.51-17.24 75.4-16.66 75.29-16.09 75.21-15.82L75.21-15.82Q75-15.06 73.55-14.58L73.55-14.58Q75.02-14.06 75.21-13.35L75.21-13.35Q75.51-12.18 75.51-8.08L75.51-8.08 75.51-6.49Q76.8-7.32 76.87-10.89L76.87-10.89 76.87-12.35Q76.9-13.09 76.9-13.65L76.9-13.65ZM86.59-16.19L91.01-6.47Q91.33-6.88 91.33-7.59 91.33-8.3 91.22-8.86 91.11-9.42 90.94-9.99L90.94-9.99Q90.62-10.89 90.01-12.13L90.01-12.13 87.69-17.16 86.59-16.19ZM125.26-7.37L125.26-7.37Q125.8-8.4 127.24-8.4L127.24-8.4Q128.22-8.4 128.75-7.59L128.75-7.59Q129.19-6.96 129.19-6.04 129.19-5.13 128.73-4.2 128.26-3.27 127.46-2.51 126.65-1.76 125.62-1.17 124.58-0.59 123.41-0.2L123.41-0.2Q120.99 0.61 118.38 0.61 115.76 0.61 113.48-0.26 111.2-1.12 109.56-2.69L109.56-2.69Q106.36-5.76 105.66-11.13L105.66-11.13Q105.49-12.33 105.1-12.84L105.1-12.84Q104.36-13.75 102.68-14.58L102.68-14.58Q104.8-15.53 105.39-17.63L105.39-17.63Q105.56-18.21 105.66-18.8L105.66-18.8Q106.27-23.1 110-26.12L110-26.12Q113.62-29.05 118.08-29.05L118.08-29.05Q122.72-29.05 126.12-25.78L126.12-25.78Q129.63-22.41 129.63-17.5L129.63-17.5Q129.63-17.33 129.62-17.16 129.61-16.99 129.63-16.85L129.63-16.85Q129.68-16.53 130.02-16.48L130.02-16.48Q130.46-15.92 130.46-15.28L130.46-15.28Q130.46-13.82 128.9-13.55L128.9-13.55Q128.51-13.48 127.68-13.35L127.68-13.35 113.91-11.16 113.91-8.81Q113.91-5.98 115.62-4.32L115.62-4.32Q117.23-2.73 119.69-2.73L119.69-2.73Q122.31-2.73 123.89-3.81L123.89-3.81Q125.38-4.83 125.38-6.49L125.38-6.49Q125.38-6.88 125.26-7.37ZM113.91-14.11L120.99-15.26 120.99-22.09Q120.99-23.71 120.35-24.46L120.35-24.46Q119.23-25.76 118.13-25.76 117.03-25.76 116.3-25.43 115.57-25.1 115.03-24.39L115.03-24.39Q113.91-22.9 113.91-19.75L113.91-19.75 113.91-14.11ZM123.09-15.63L124.6-15.87 124.6-16.63Q124.6-21.17 123.85-22.12L123.85-22.12Q123.5-22.53 123.09-22.73L123.09-22.73 123.09-15.63ZM109.93-6.47L109.93-6.47Q110.27-6.74 110.27-7.08L110.27-7.08Q110.27-7.62 110.05-8.45L110.05-8.45Q109.05-12.28 109.05-13.78 109.05-15.28 109.15-16.13 109.25-16.97 109.42-17.82L109.42-17.82Q109.71-19.48 110.05-20.75L110.05-20.75Q110.27-21.58 110.27-21.88L110.27-21.88Q110.27-22.46 109.93-22.73L109.93-22.73Q108.9-21.51 108.37-19.46 107.83-17.41 107.49-15.84L107.49-15.84Q107.37-15.19 106.05-14.58L106.05-14.58Q107.37-13.96 107.49-13.35L107.49-13.35Q108.39-9.23 108.98-8.11 109.56-6.98 109.93-6.47ZM166.27-7.37L166.27-7.37Q166.81-8.4 168.25-8.4L168.25-8.4Q169.23-8.4 169.76-7.59L169.76-7.59Q170.2-6.96 170.2-6.04 170.2-5.13 169.75-4.2 169.3-3.27 168.54-2.51 167.79-1.76 166.8-1.17 165.81-0.59 164.68-0.2L164.68-0.2Q162.41 0.61 159.95 0.61 157.48 0.61 155.29-0.26 153.09-1.12 151.5-2.69L151.5-2.69Q148.3-5.83 147.64-11.13L147.64-11.13Q147.47-12.33 147.08-12.84L147.08-12.84Q146.35-13.75 144.67-14.58L144.67-14.58Q147.25-15.75 147.64-18.8L147.64-18.8Q148.28-23.46 151.79-26.17L151.79-26.17Q155.16-28.81 160-28.81L160-28.81Q164.17-28.81 167.03-26.27L167.03-26.27Q169.74-23.88 169.74-20.73L169.74-20.73Q169.74-18.95 170.98-18.46L170.98-18.46Q170.25-17.26 168.93-17.26L168.93-17.26Q168.47-17.26 168.08-17.36L168.08-17.36Q167.22-16.11 165.61-15.67L165.61-15.67Q165.1-15.55 164.64-15.55 164.17-15.55 163.54-15.73 162.9-15.92 162.66-16.24L162.66-16.24Q163.37-16.53 163.49-17.7L163.49-17.7Q163.34-17.68 163.22-17.68L163.22-17.68 163.02-17.68Q161.36-17.68 160.97-19.58L160.97-19.58Q162.78-19.58 163.61-20.97L163.61-20.97Q163.9-21.46 163.9-22.17L163.9-22.17Q163.9-23.73 162.9-24.62 161.9-25.51 160.12-25.51L160.12-25.51Q155.99-25.51 155.99-20.19L155.99-20.19 155.99-8.33Q155.99-4.17 159.17-3.08L159.17-3.08Q160.09-2.73 161.27-2.73 162.44-2.73 163.4-3.03 164.37-3.32 165.03-3.83L165.03-3.83Q166.37-4.88 166.37-6.49L166.37-6.49Q166.37-6.98 166.27-7.37ZM151.92-6.47L151.92-6.47Q152.26-6.74 152.26-7.08L152.26-7.08Q152.26-7.62 152.04-8.45L152.04-8.45Q151.04-12.28 151.04-13.78 151.04-15.28 151.13-16.13 151.23-16.97 151.4-17.82L151.4-17.82Q151.7-19.48 152.04-20.75L152.04-20.75Q152.26-21.58 152.26-21.88L152.26-21.88Q152.26-22.46 151.92-22.73L151.92-22.73Q150.89-21.51 150.35-19.46 149.82-17.41 149.47-15.84L149.47-15.84Q149.35-15.21 148.03-14.6L148.03-14.6Q149.35-13.99 149.47-13.35L149.47-13.35Q150.38-9.23 150.96-8.11 151.55-6.98 151.92-6.47ZM178.62-2.73Q177.08-4.3 176.19-6.45 175.3-8.59 175.11-10.13 174.91-11.67 174.78-12.11 174.64-12.55 174.33-12.94L174.33-12.94Q173.69-13.75 172.01-14.58L172.01-14.58Q174.13-15.53 174.72-17.63L174.72-17.63Q174.89-18.21 174.99-18.8L174.99-18.8Q175.62-23.17 179.21-26.11 182.8-29.05 187.58-29.05L187.58-29.05Q192.56-29.05 196.15-26.07L196.15-26.07Q199.64-23.17 200.28-18.8L200.28-18.8Q200.5-17.26 200.94-16.55L200.94-16.55Q201.77-15.26 203.26-14.58L203.26-14.58Q201.6-13.77 201.11-13.16L201.11-13.16Q200.45-12.3 200.28-11.13L200.28-11.13Q199.5-5.37 196.27-2.38 193.05 0.61 187.68 0.61L187.68 0.61Q181.92 0.61 178.62-2.73L178.62-2.73ZM191.78-19.51Q191.78-25.61 187.63-25.61 183.48-25.61 183.48-19.51L183.48-19.51 183.48-8.69Q183.48-2.83 187.61-2.83L187.61-2.83Q191.78-2.83 191.78-8.69L191.78-8.69 191.78-19.51ZM194.13-22.73L194.13-6.47Q195.35-6.93 195.47-9.67L195.47-9.67Q195.61-12.4 195.61-13.73 195.61-15.06 195.6-15.95 195.59-16.85 195.57-17.8L195.57-17.8Q195.47-21.36 195-21.95 194.54-22.53 194.13-22.73L194.13-22.73ZM179.5-6.47L179.5-6.47Q179.84-6.74 179.84-7.08L179.84-7.08Q179.84-7.62 179.62-8.45L179.62-8.45Q178.62-12.28 178.62-13.78 178.62-15.28 178.72-16.13 178.82-16.97 178.96-17.82L178.96-17.82Q179.28-19.48 179.62-20.75L179.62-20.75Q179.84-21.58 179.84-21.88L179.84-21.88Q179.84-22.46 179.5-22.73L179.5-22.73Q178.48-21.51 177.94-19.46 177.4-17.41 177.06-15.84L177.06-15.84Q176.94-15.19 175.62-14.58L175.62-14.58Q176.94-13.96 177.06-13.35L177.06-13.35Q177.96-9.23 178.55-8.11 179.14-6.98 179.5-6.47ZM211.21-0.29L211.21-0.29Q210.09 0.49 208.65 0.49 207.21 0.49 206.56-0.18 205.92-0.85 205.92-1.46L205.92-1.46Q205.92-2.27 206.18-2.64L206.18-2.64Q206.72-2.22 207.55-2.22L207.55-2.22Q209.11-2.22 209.58-3.74L209.58-3.74 209.58-11.33Q209.58-12.4 209.11-12.89L209.11-12.89Q208.41-13.7 206.6-14.58L206.6-14.58Q208.31-15.36 208.77-15.82L208.77-15.82Q209.58-16.63 209.58-17.8L209.58-17.8 209.58-21.36Q209.58-23.44 208.16-23.61L208.16-23.61Q207.75-23.66 207.11-23.66 206.48-23.66 205.94-23.24L205.94-23.24Q205.6-23.71 205.6-24.21 205.6-24.71 205.85-25.33 206.11-25.95 206.62-26.51L206.62-26.51Q207.92-27.83 209.61-27.83 211.31-27.83 212.43-27.29L212.43-27.29Q213.78-28.81 215.17-28.81 216.56-28.81 217.1-28.16 217.63-27.51 217.63-26.17L217.63-26.17 217.63-23.88Q218.9-26.15 221.1-27.48 223.3-28.81 225.76-28.81 228.23-28.81 229.73-28.16 231.23-27.51 232.21-26.32L232.21-26.32Q234.11-23.95 234.11-19.43L234.11-19.43 234.11-17.82Q234.11-16.65 234.63-16.14L234.63-16.14Q235.38-15.36 237.09-14.58L237.09-14.58Q235.26-13.67 234.8-13.21L234.8-13.21Q234.11-12.45 234.11-11.38L234.11-11.38 234.11-3.74Q234.58-2.22 236.14-2.22L236.14-2.22Q236.97-2.22 237.51-2.64L237.51-2.64Q237.78-2.27 237.78-1.56 237.78-0.85 237.13-0.18 236.48 0.49 235.14 0.49 233.8 0.49 232.7-0.27L232.7-0.27Q231.72 0.49 230.41 0.49 229.11 0.49 228.08-0.24L228.08-0.24Q227.01 0.49 225.79 0.49 224.57 0.49 223.86-0.12 223.15-0.73 223.15-1.88L223.15-1.88Q223.15-2.42 223.52-2.73L223.52-2.73Q224.08-2.29 224.64-2.29L224.64-2.29Q225.71-2.29 226.18-3.49L226.18-3.49 226.18-18.04Q226.18-22.78 223.86-23.54L223.86-23.54Q223.1-23.78 222.22-23.78 221.34-23.78 220.59-23.43 219.83-23.07 219.22-22.44L219.22-22.44Q217.88-21.02 217.63-19.07L217.63-19.07 217.63-3.49Q218.1-2.29 219.17-2.29L219.17-2.29Q219.73-2.29 220.3-2.73L220.3-2.73Q220.66-2.42 220.66-1.57 220.66-0.73 219.95-0.12 219.25 0.49 218.09 0.49 216.93 0.49 215.97-0.24L215.97-0.24Q215.05 0.49 213.7 0.49 212.36 0.49 211.21-0.29ZM228.52-15.77L228.52-6.47Q229.74-6.93 229.87-9.67L229.87-9.67Q230.01-12.4 230.01-14.82 230.01-17.24 229.82-18.81 229.62-20.39 229.25-21.28 228.89-22.17 228.39-22.57 227.89-22.97 227.3-23.27L227.3-23.27Q228.23-21.07 228.38-19.26 228.52-17.46 228.52-15.77L228.52-15.77ZM213.32-11.87Q213.34-12.67 213.35-13.22 213.36-13.77 213.36-14.11 213.36-14.45 213.36-14.81 213.36-15.16 213.35-15.75 213.34-16.33 213.32-17.04 213.31-17.75 213.26-18.43L213.26-18.43Q213.19-20.12 213.04-20.75L213.04-20.75Q212.75-22.17 211.92-22.71L211.92-22.71 211.92-21.12Q211.92-17.02 211.74-16.3 211.55-15.58 211.15-15.21 210.75-14.84 209.97-14.58L209.97-14.58Q211.43-14.06 211.63-13.35L211.63-13.35Q211.92-12.18 211.92-8.08L211.92-8.08 211.92-6.49Q213.04-7.23 213.21-9.47L213.21-9.47Q213.31-11.06 213.32-11.87ZM256.16-3.58Q256.62-4.05 256.89-4.8 257.16-5.54 257.16-6.36 257.16-7.18 257.06-7.86L257.06-7.86Q257.23-8.23 257.99-8.44 258.74-8.64 258.99-8.64L258.99-8.64Q259.92-8.64 260.48-7.95 261.04-7.25 261.04-6.02 261.04-4.79 260.32-3.59 259.6-2.39 258.4-1.46L258.4-1.46Q255.74 0.61 252.2 0.61L252.2 0.61Q245.46 0.61 243.27-4.49L243.27-4.49Q242.46-6.37 242.46-9.2L242.46-9.2 242.46-12.18Q242.46-13.33 239.95-14.6L239.95-14.6Q242.46-16.04 242.46-18.48L242.46-18.48 242.46-21.36Q242.46-24.15 240.19-24.15L240.19-24.15Q239.36-24.15 238.82-23.73L238.82-23.73Q238.48-24.19 238.48-24.69 238.48-25.2 238.66-25.79 238.85-26.39 239.31-26.88L239.31-26.88Q240.48-28.15 242.95-27.76L242.95-27.76 242.95-28.54Q242.95-31.1 244.24-33.06L244.24-33.06Q245.39-34.81 246.28-34.81 247.17-34.81 247.66-34.2L247.66-34.2Q248.08-36.13 248.76-36.99 249.44-37.84 250.71-37.84L250.71-37.84 250.71-27.66 258.65-27.66Q258.84-27.27 258.84-26.35 258.84-25.44 258.13-24.89 257.43-24.34 256.43-24.34L256.43-24.34 250.71-24.34 250.71-7.81Q250.71-3.56 252.64-2.83L252.64-2.83Q253.2-2.64 253.85-2.64 254.5-2.64 255.09-2.87 255.69-3.1 256.16-3.58ZM244.8-8.06L244.8-6.47Q245.95-7.2 246.1-9.52L246.1-9.52Q246.2-11.18 246.21-12.11 246.22-13.04 246.23-13.61 246.24-14.18 246.24-14.5L246.24-14.5 246.24-15.48Q246.24-16.19 246.23-17.3 246.22-18.41 246.21-19.71 246.2-21.02 246.15-22.22L246.15-22.22Q246.07-25.1 245.93-25.73L245.93-25.73Q245.63-27.15 244.8-27.69L244.8-27.69 244.8-20.07Q244.8-16.67 244.69-16.48 244.58-16.28 244.51-16.02L244.51-16.02Q244.29-15.28 242.85-14.79L242.85-14.79Q244.32-14.28 244.51-13.55L244.51-13.55Q244.8-12.38 244.8-8.06L244.8-8.06ZM266.8-0.29L266.8-0.29Q265.68 0.49 264.24 0.49 262.79 0.49 262.15-0.18 261.5-0.85 261.5-1.46L261.5-1.46Q261.5-2.27 261.77-2.64L261.77-2.64Q262.31-2.22 263.14-2.22L263.14-2.22Q264.7-2.22 265.16-3.74L265.16-3.74 265.16-11.13Q265.16-12.26 264.72-12.79L264.72-12.79Q263.94-13.75 262.18-14.6L262.18-14.6Q265.16-15.97 265.16-18.8L265.16-18.8 265.16-21.36Q265.16-23.44 263.75-23.61L263.75-23.61Q263.33-23.66 262.7-23.66 262.06-23.66 261.53-23.24L261.53-23.24Q261.18-23.71 261.18-24.21 261.18-24.71 261.44-25.33 261.7-25.95 262.23-26.51L262.23-26.51Q263.5-27.83 265.2-27.83 266.9-27.83 268.02-27.29L268.02-27.29Q269.36-28.81 270.9-28.81L270.9-28.81Q273.29-28.81 273.29-26.17L273.29-26.17 273.29-22.83Q275.73-28.83 281.06-28.83L281.06-28.83Q283.45-28.83 284.94-27.37L284.94-27.37Q286.48-25.88 286.48-23.24L286.48-23.24 286.48-22.9Q286.48-22.73 286.43-22.2 286.38-21.68 286.46-21.14 286.55-20.61 286.75-20.26L286.75-20.26Q287.01-19.75 287.75-19.46L287.75-19.46Q287.58-18.8 286.95-18.27 286.33-17.75 285.57-17.75L285.57-17.75 285.11-17.75Q284.16-16.55 282.45-16.06L282.45-16.06Q281.96-15.92 281.39-15.92 280.81-15.92 280.39-16.17 279.96-16.43 279.91-16.72L279.91-16.72Q280.37-16.94 280.37-17.6L280.37-17.6 280.37-17.72Q280.18-17.68 280.03-17.68L280.03-17.68 279.79-17.68Q278.98-17.68 278.33-18.29 277.69-18.9 277.49-19.82L277.49-19.82Q278.81-19.78 279.79-20.8L279.79-20.8Q280.67-21.7 280.67-22.66L280.67-22.66Q280.67-24.9 278.71-24.9L278.71-24.9Q277.03-24.9 275.32-22.22L275.32-22.22Q273.71-19.75 273.29-17.11L273.29-17.11 273.29-3.91Q273.56-3.05 274.12-2.64 274.68-2.22 275.66-2.22 276.64-2.22 277.17-2.64L277.17-2.64Q277.44-2.27 277.44-1.56 277.44-0.85 276.8-0.18 276.15 0.49 274.62 0.49 273.1 0.49 271.71-0.34L271.71-0.34Q270.73 0.49 269.34 0.49 267.95 0.49 266.8-0.29ZM268.91-11.88Q268.92-12.7 268.94-13.26 268.95-13.82 268.95-14.16L268.95-14.16 268.95-14.82Q268.95-15.19 268.94-15.76 268.92-16.33 268.91-17.05 268.9-17.77 268.87-18.46L268.87-18.46Q268.73-21 268.32-21.72 267.92-22.44 267.51-22.71L267.51-22.71 267.51-21.12Q267.51-17.02 267.32-16.3 267.14-15.58 266.74-15.22 266.33-14.87 265.55-14.6L265.55-14.6Q267.02-14.09 267.21-13.35L267.21-13.35Q267.51-12.18 267.51-8.08L267.51-8.08 267.51-6.49Q268.63-7.23 268.78-9.47L268.78-9.47Q268.9-11.06 268.91-11.88ZM294.73-2.73Q293.19-4.3 292.3-6.45 291.41-8.59 291.21-10.13 291.02-11.67 290.88-12.11 290.75-12.55 290.43-12.94L290.43-12.94Q289.79-13.75 288.11-14.58L288.11-14.58Q290.23-15.53 290.82-17.63L290.82-17.63Q290.99-18.21 291.09-18.8L291.09-18.8Q291.72-23.17 295.31-26.11 298.9-29.05 303.69-29.05L303.69-29.05Q308.67-29.05 312.26-26.07L312.26-26.07Q315.75-23.17 316.38-18.8L316.38-18.8Q316.6-17.26 317.04-16.55L317.04-16.55Q317.87-15.26 319.36-14.58L319.36-14.58Q317.7-13.77 317.21-13.16L317.21-13.16Q316.55-12.3 316.38-11.13L316.38-11.13Q315.6-5.37 312.38-2.38 309.15 0.61 303.78 0.61L303.78 0.61Q298.02 0.61 294.73-2.73L294.73-2.73ZM307.89-19.51Q307.89-25.61 303.73-25.61 299.58-25.61 299.58-19.51L299.58-19.51 299.58-8.69Q299.58-2.83 303.71-2.83L303.71-2.83Q307.89-2.83 307.89-8.69L307.89-8.69 307.89-19.51ZM310.23-22.73L310.23-6.47Q311.45-6.93 311.57-9.67L311.57-9.67Q311.72-12.4 311.72-13.73 311.72-15.06 311.71-15.95 311.69-16.85 311.67-17.8L311.67-17.8Q311.57-21.36 311.11-21.95 310.64-22.53 310.23-22.73L310.23-22.73ZM295.6-6.47L295.6-6.47Q295.95-6.74 295.95-7.08L295.95-7.08Q295.95-7.62 295.73-8.45L295.73-8.45Q294.73-12.28 294.73-13.78 294.73-15.28 294.82-16.13 294.92-16.97 295.07-17.82L295.07-17.82Q295.39-19.48 295.73-20.75L295.73-20.75Q295.95-21.58 295.95-21.88L295.95-21.88Q295.95-22.46 295.6-22.73L295.6-22.73Q294.58-21.51 294.04-19.46 293.51-17.41 293.16-15.84L293.16-15.84Q293.04-15.19 291.72-14.58L291.72-14.58Q293.04-13.96 293.16-13.35L293.16-13.35Q294.07-9.23 294.65-8.11 295.24-6.98 295.6-6.47ZM327.39-0.29L327.39-0.29Q326.27 0.49 324.84 0.49 323.41 0.49 322.71-0.15 322.02-0.78 322.02-1.37L322.02-1.37Q322.02-2.17 322.36-2.64L322.36-2.64Q322.9-2.22 323.73-2.22L323.73-2.22Q325.14-2.22 325.75-3.86L325.75-3.86 325.75-11.38Q325.75-12.45 325.31-12.94L325.31-12.94Q324.61-13.67 322.78-14.58L322.78-14.58Q324.48-15.36 324.97-15.84L324.97-15.84Q325.75-16.65 325.75-17.82L325.75-17.82 325.75-31.62Q325.75-34.4 323.48-34.4L323.48-34.4Q322.65-34.4 322.12-33.98L322.12-33.98Q321.77-34.45 321.77-34.95 321.77-35.45 322.03-35.91 322.29-36.38 322.82-36.77L322.82-36.77Q323.97-37.6 325.73-37.6 327.49-37.6 328.46-37.38L328.46-37.38Q329.81-39.06 331.49-39.06L331.49-39.06Q333.93-39.06 333.93-36.43L333.93-36.43 333.93-17.82Q333.93-16.65 334.45-16.14L334.45-16.14Q335.2-15.36 336.91-14.58L336.91-14.58Q335.08-13.67 334.62-13.21L334.62-13.21Q333.93-12.45 333.93-11.38L333.93-11.38 333.93-3.86Q334.52-2.22 335.96-2.22L335.96-2.22Q336.79-2.22 337.33-2.64L337.33-2.64Q337.67-2.17 337.67-1.48 337.67-0.78 336.97-0.15 336.28 0.49 334.88 0.49 333.49 0.49 332.3-0.29L332.3-0.29Q331.3 0.49 329.92 0.49 328.54 0.49 327.39-0.29ZM328.1-8.08L328.1-6.49Q329.2-7.2 329.39-9.59L329.39-9.59Q329.46-10.64 329.49-11.94 329.51-13.23 329.53-13.78 329.54-14.33 329.54-14.6L329.54-14.6 329.54-16.8Q329.54-17.7 329.51-18.85L329.51-18.85 329.51-21.24Q329.44-27.71 329.27-28.44L329.27-28.44Q328.93-29.98 328.1-30.52L328.1-30.52 328.1-22.29Q328.1-17.24 327.99-16.66 327.88-16.09 327.8-15.82L327.8-15.82Q327.58-15.06 326.14-14.58L326.14-14.58Q327.61-14.06 327.8-13.35L327.8-13.35Q328.1-12.18 328.1-8.08L328.1-8.08ZM381.49-25.17L381.49-25.17Q380.95-25.51 379.78-25.51L379.78-25.51Q377.43-25.51 376.24-22.34L376.24-22.34 375.48-20.21Q374.65-17.9 374.64-17.04 374.63-16.19 374.93-15.66 375.24-15.14 376.31-14.58L376.31-14.58Q373.67-13.84 372.72-12.11L372.72-12.11Q372.43-11.57 372.21-10.99L372.21-10.99 368.16 0.02Q365.79 6.84 363.76 9.25L363.76 9.25Q361.91 11.47 359.12 11.47L359.12 11.47Q357 11.47 355.12 10.11L355.12 10.11Q352.97 8.57 352.97 6.49L352.97 6.49Q352.97 5.2 353.65 4.53 354.34 3.86 354.91 3.86 355.49 3.86 355.7 3.87 355.92 3.88 356.14 3.96L356.14 3.96Q356.58 4.15 356.97 4.83L356.97 4.83Q356.46 5.81 357.63 6.98L357.63 6.98Q358.73 8.13 359.7 8.13 360.66 8.13 361.31 7.76 361.95 7.4 362.47 6.64L362.47 6.64Q363.59 4.98 363.59 1.88L363.59 1.88Q363.59 0.2 362.69-1.83L362.69-1.83Q362.44-2.51 362.1-3.27L362.1-3.27 358.63-11.08Q358.07-12.33 356.94-13.29 355.8-14.26 354.39-14.58L354.39-14.58Q356.07-15.43 356.07-16.82L356.07-16.82Q356.07-17.82 355.27-19.78L355.27-19.78 353.82-23.24Q353.19-24.66 352.78-25.02L352.78-25.02Q352.04-25.61 351.08-25.61 350.11-25.61 349.58-25.2L349.58-25.2Q349.28-25.49 349.27-26.05 349.26-26.61 349.41-26.99 349.55-27.37 349.89-27.66L349.89-27.66Q350.63-28.32 352.01-28.32 353.39-28.32 354.61-27.44L354.61-27.44Q355.61-28.32 357.05-28.32 358.49-28.32 359.59-27.51L359.59-27.51Q360.69-28.32 362.05-28.32 363.42-28.32 364.21-27.67 365.01-27.03 365.03-26.39L365.03-26.39Q365.06-25.44 364.71-25.1L364.71-25.1Q364.13-25.54 363.49-25.54 362.86-25.54 362.46-25.17 362.05-24.8 362.1-23.97L362.1-23.97 367.74-8.74 373.09-24.39Q372.82-25.63 371.31-25.63L371.31-25.63Q370.35-25.63 369.5-25.17L369.5-25.17Q369.25-25.63 369.27-26.37 369.28-27.1 369.95-27.71 370.62-28.32 371.78-28.32 372.94-28.32 373.77-27.54L373.77-27.54Q374.65-28.32 375.75-28.32 376.85-28.32 377.75-27.64L377.75-27.64Q378.58-28.32 379.59-28.32 380.61-28.32 381.21-27.73 381.8-27.15 381.78-26.51L381.78-26.51Q381.73-25.54 381.49-25.17ZM362.47-12.08L357.98-22.73Q357.41-22.36 357.43-21.8 357.44-21.24 357.47-20.94 357.51-20.63 357.61-20.21L357.61-20.21Q357.83-19.43 358.5-17.91 359.17-16.38 359.21-16 359.24-15.63 358.95-15.17 358.66-14.72 358.24-14.58L358.24-14.58Q359.81-14.28 360.17-13.48L360.17-13.48Q360.34-13.13 360.66-12.4L360.66-12.4 362.32-8.69Q362.81-7.57 363.35-6.47L363.35-6.47Q364.35-7.69 362.47-12.08L362.47-12.08ZM387.95-2.73Q386.42-4.3 385.52-6.45 384.63-8.59 384.44-10.13 384.24-11.67 384.11-12.11 383.97-12.55 383.66-12.94L383.66-12.94Q383.02-13.75 381.34-14.58L381.34-14.58Q383.46-15.53 384.05-17.63L384.05-17.63Q384.22-18.21 384.32-18.8L384.32-18.8Q384.95-23.17 388.54-26.11 392.13-29.05 396.91-29.05L396.91-29.05Q401.89-29.05 405.48-26.07L405.48-26.07Q408.97-23.17 409.61-18.8L409.61-18.8Q409.83-17.26 410.27-16.55L410.27-16.55Q411.1-15.26 412.59-14.58L412.59-14.58Q410.93-13.77 410.44-13.16L410.44-13.16Q409.78-12.3 409.61-11.13L409.61-11.13Q408.83-5.37 405.6-2.38 402.38 0.61 397.01 0.61L397.01 0.61Q391.25 0.61 387.95-2.73L387.95-2.73ZM401.11-19.51Q401.11-25.61 396.96-25.61 392.81-25.61 392.81-19.51L392.81-19.51 392.81-8.69Q392.81-2.83 396.94-2.83L396.94-2.83Q401.11-2.83 401.11-8.69L401.11-8.69 401.11-19.51ZM403.46-22.73L403.46-6.47Q404.68-6.93 404.8-9.67L404.8-9.67Q404.95-12.4 404.95-13.73 404.95-15.06 404.93-15.95 404.92-16.85 404.9-17.8L404.9-17.8Q404.8-21.36 404.34-21.95 403.87-22.53 403.46-22.73L403.46-22.73ZM388.83-6.47L388.83-6.47Q389.17-6.74 389.17-7.08L389.17-7.08Q389.17-7.62 388.95-8.45L388.95-8.45Q387.95-12.28 387.95-13.78 387.95-15.28 388.05-16.13 388.15-16.97 388.3-17.82L388.3-17.82Q388.61-19.48 388.95-20.75L388.95-20.75Q389.17-21.58 389.17-21.88L389.17-21.88Q389.17-22.46 388.83-22.73L388.83-22.73Q387.81-21.51 387.27-19.46 386.73-17.41 386.39-15.84L386.39-15.84Q386.27-15.19 384.95-14.58L384.95-14.58Q386.27-13.96 386.39-13.35L386.39-13.35Q387.29-9.23 387.88-8.11 388.47-6.98 388.83-6.47ZM438.85 0.49L438.85 0.49Q435.41 0.49 435.14-4.27L435.14-4.27Q433.9-2.03 431.79-0.71 429.67 0.61 427.25 0.61 424.82 0.61 423.3-0.05 421.79-0.71 420.79-1.95L420.79-1.95Q418.83-4.39 418.83-8.89L418.83-8.89 418.83-10.4Q418.83-13.23 415.86-14.6L415.86-14.6Q417.61-15.45 418.1-16.04L418.1-16.04Q418.83-16.94 418.83-18.07L418.83-18.07 418.83-21.36Q418.83-23.44 417.42-23.61L417.42-23.61Q417-23.66 416.37-23.66 415.73-23.66 415.2-23.24L415.2-23.24Q414.86-23.71 414.86-24.21 414.86-24.71 415.11-25.33 415.37-25.95 415.9-26.51L415.9-26.51Q417.17-27.83 418.86-27.83 420.54-27.83 422.03-27.27L422.03-27.27Q423.11-28.81 424.57-28.81L424.57-28.81Q427.09-28.81 427.09-26.17L427.09-26.17 427.09-10.28Q427.09-5.64 429.23-4.71L429.23-4.71Q429.92-4.42 430.76-4.42 431.6-4.42 432.29-4.77 432.97-5.13 433.48-5.74L433.48-5.74Q434.44-6.93 434.7-9.01L434.7-9.01 434.7-21.36Q434.7-24.15 432.43-24.15L432.43-24.15Q431.6-24.15 431.07-23.73L431.07-23.73Q430.72-24.19 430.72-24.69 430.72-25.2 430.98-25.74 431.24-26.29 431.77-26.76L431.77-26.76Q432.97-27.83 434.69-27.83 436.41-27.83 437.9-27.27L437.9-27.27Q438.98-28.81 440.44-28.81L440.44-28.81Q442.96-28.81 442.96-26.17L442.96-26.17 442.96-18.07Q442.96-16.94 443.4-16.41L443.4-16.41Q444.18-15.45 445.93-14.6L445.93-14.6Q442.96-13.23 442.96-10.4L442.96-10.4 442.96-4.1Q443.42-2.22 444.98-2.22L444.98-2.22Q445.81-2.22 446.35-2.64L446.35-2.64Q446.69-2.17 446.69-1.48 446.69-0.78 446-0.15 445.3 0.49 443.82 0.49 442.35 0.49 441.03-0.29L441.03-0.29Q440.05 0.49 438.85 0.49ZM437.02-22.73L437.02-6.47Q438.44-7.03 438.51-11.87L438.51-11.87Q438.51-12.89 438.51-14.21 438.51-15.53 438.5-16.47 438.49-17.41 438.46-18.26L438.46-18.26Q438.37-21.34 437.9-21.94 437.44-22.53 437.02-22.73L437.02-22.73ZM422.5-11.38L422.42-14.6 422.5-17.82Q422.5-20 422.35-20.7L422.35-20.7Q421.94-22.56 421.18-22.73L421.18-22.73 421.18-21.14Q421.18-17.02 421-16.3 420.81-15.58 420.41-15.22 420.01-14.87 419.23-14.6L419.23-14.6Q420.69-14.09 420.89-13.35L420.89-13.35Q421.18-12.18 421.18-8.06L421.18-8.06 421.18-6.47Q421.91-6.64 422.37-8.64L422.37-8.64Q422.5-9.2 422.5-11.38L422.5-11.38ZM454.38-0.29L454.38-0.29Q453.26 0.49 451.82 0.49 450.38 0.49 449.73-0.18 449.08-0.85 449.08-1.46L449.08-1.46Q449.08-2.27 449.35-2.64L449.35-2.64Q449.89-2.22 450.72-2.22L450.72-2.22Q452.28-2.22 452.74-3.74L452.74-3.74 452.74-11.13Q452.74-12.26 452.3-12.79L452.3-12.79Q451.52-13.75 449.76-14.6L449.76-14.6Q452.74-15.97 452.74-18.8L452.74-18.8 452.74-21.36Q452.74-23.44 451.33-23.61L451.33-23.61Q450.91-23.66 450.28-23.66 449.64-23.66 449.11-23.24L449.11-23.24Q448.76-23.71 448.76-24.21 448.76-24.71 449.02-25.33 449.28-25.95 449.81-26.51L449.81-26.51Q451.08-27.83 452.78-27.83 454.48-27.83 455.6-27.29L455.6-27.29Q456.94-28.81 458.48-28.81L458.48-28.81Q460.87-28.81 460.87-26.17L460.87-26.17 460.87-22.83Q463.31-28.83 468.64-28.83L468.64-28.83Q471.03-28.83 472.52-27.37L472.52-27.37Q474.06-25.88 474.06-23.24L474.06-23.24 474.06-22.9Q474.06-22.73 474.01-22.2 473.96-21.68 474.04-21.14 474.13-20.61 474.33-20.26L474.33-20.26Q474.59-19.75 475.33-19.46L475.33-19.46Q475.16-18.8 474.53-18.27 473.91-17.75 473.15-17.75L473.15-17.75 472.69-17.75Q471.74-16.55 470.03-16.06L470.03-16.06Q469.54-15.92 468.97-15.92 468.39-15.92 467.97-16.17 467.54-16.43 467.49-16.72L467.49-16.72Q467.95-16.94 467.95-17.6L467.95-17.6 467.95-17.72Q467.76-17.68 467.61-17.68L467.61-17.68 467.37-17.68Q466.56-17.68 465.91-18.29 465.27-18.9 465.07-19.82L465.07-19.82Q466.39-19.78 467.37-20.8L467.37-20.8Q468.25-21.7 468.25-22.66L468.25-22.66Q468.25-24.9 466.29-24.9L466.29-24.9Q464.61-24.9 462.9-22.22L462.9-22.22Q461.29-19.75 460.87-17.11L460.87-17.11 460.87-3.91Q461.14-3.05 461.7-2.64 462.26-2.22 463.24-2.22 464.22-2.22 464.75-2.64L464.75-2.64Q465.02-2.27 465.02-1.56 465.02-0.85 464.38-0.18 463.73 0.49 462.2 0.49 460.68 0.49 459.29-0.34L459.29-0.34Q458.31 0.49 456.92 0.49 455.53 0.49 454.38-0.29ZM456.49-11.88Q456.5-12.7 456.52-13.26 456.53-13.82 456.53-14.16L456.53-14.16 456.53-14.82Q456.53-15.19 456.52-15.76 456.5-16.33 456.49-17.05 456.48-17.77 456.45-18.46L456.45-18.46Q456.31-21 455.9-21.72 455.5-22.44 455.09-22.71L455.09-22.71 455.09-21.12Q455.09-17.02 454.9-16.3 454.72-15.58 454.32-15.22 453.92-14.87 453.13-14.6L453.13-14.6Q454.6-14.09 454.79-13.35L454.79-13.35Q455.09-12.18 455.09-8.08L455.09-8.08 455.09-6.49Q456.21-7.23 456.36-9.47L456.36-9.47Q456.48-11.06 456.49-11.88ZM504.67-3.58Q505.13-4.05 505.4-4.8 505.67-5.54 505.67-6.36 505.67-7.18 505.57-7.86L505.57-7.86Q505.74-8.23 506.5-8.44 507.25-8.64 507.5-8.64L507.5-8.64Q508.43-8.64 508.99-7.95 509.55-7.25 509.55-6.02 509.55-4.79 508.83-3.59 508.11-2.39 506.91-1.46L506.91-1.46Q504.25 0.61 500.71 0.61L500.71 0.61Q493.97 0.61 491.78-4.49L491.78-4.49Q490.97-6.37 490.97-9.2L490.97-9.2 490.97-12.18Q490.97-13.33 488.46-14.6L488.46-14.6Q490.97-16.04 490.97-18.48L490.97-18.48 490.97-21.36Q490.97-24.15 488.7-24.15L488.7-24.15Q487.87-24.15 487.33-23.73L487.33-23.73Q486.99-24.19 486.99-24.69 486.99-25.2 487.17-25.79 487.36-26.39 487.82-26.88L487.82-26.88Q488.99-28.15 491.46-27.76L491.46-27.76 491.46-28.54Q491.46-31.1 492.75-33.06L492.75-33.06Q493.9-34.81 494.79-34.81 495.68-34.81 496.17-34.2L496.17-34.2Q496.59-36.13 497.27-36.99 497.95-37.84 499.22-37.84L499.22-37.84 499.22-27.66 507.16-27.66Q507.35-27.27 507.35-26.35 507.35-25.44 506.64-24.89 505.94-24.34 504.94-24.34L504.94-24.34 499.22-24.34 499.22-7.81Q499.22-3.56 501.15-2.83L501.15-2.83Q501.71-2.64 502.36-2.64 503.01-2.64 503.6-2.87 504.2-3.1 504.67-3.58ZM493.31-8.06L493.31-6.47Q494.46-7.2 494.61-9.52L494.61-9.52Q494.71-11.18 494.72-12.11 494.73-13.04 494.74-13.61 494.75-14.18 494.75-14.5L494.75-14.5 494.75-15.48Q494.75-16.19 494.74-17.3 494.73-18.41 494.72-19.71 494.71-21.02 494.66-22.22L494.66-22.22Q494.58-25.1 494.44-25.73L494.44-25.73Q494.14-27.15 493.31-27.69L493.31-27.69 493.31-20.07Q493.31-16.67 493.2-16.48 493.09-16.28 493.02-16.02L493.02-16.02Q492.8-15.28 491.36-14.79L491.36-14.79Q492.83-14.28 493.02-13.55L493.02-13.55Q493.31-12.38 493.31-8.06L493.31-8.06ZM527.83-2.32L527.83-2.32Q525.61 0.61 521.17 0.61L521.17 0.61Q515.75 0.61 513.04-2.64L513.04-2.64Q511.87-4.03 511.43-5.74L511.43-5.74Q511.18-6.76 510.57-7.31 509.96-7.86 509.06-8.3L509.06-8.3Q510.82-9.11 511.57-11.33L511.57-11.33Q512.38-13.67 514.26-14.72L514.26-14.72Q516.29-15.82 518.73-15.88 521.17-15.94 522.34-16.04 523.51-16.14 524.42-16.36L524.42-16.36Q526.1-16.75 527.05-17.8L527.05-17.8 527.05-21.46Q527.05-23.88 526.06-25 525.07-26.12 523.06-26.12 521.05-26.12 520.08-25.38 519.12-24.63 519.12-23.39L519.12-23.39Q519.12-21.48 521.07-21.53L521.07-21.53Q520.68-19.63 519.02-19.63L519.02-19.63Q518.53-19.63 518.07-19.8L518.07-19.8 518.07-19.73Q518.07-19.09 518.65-18.92L518.65-18.92Q518.04-17.99 516.6-18.02 515.16-18.04 514.36-19.56L514.36-19.56Q513.99-19.46 513.51-19.46 513.04-19.46 512.46-19.78 511.89-20.09 511.55-20.65L511.55-20.65Q512.77-21.39 513.04-22.92L513.04-22.92Q513.33-24.8 516.04-26.73L516.04-26.73Q519.31-29.05 524.39-29.05L524.39-29.05Q532.81-29.05 534.67-23.88L534.67-23.88Q535.28-22.14 535.28-19.78L535.28-19.78 535.28-17.8Q535.28-16.6 535.88-15.84 536.48-15.09 537.92-14.6L537.92-14.6Q536.38-13.89 535.94-13.33L535.94-13.33Q535.28-12.48 535.28-11.38L535.28-11.38 535.28-4.05Q535.99-2.22 537.31-2.22L537.31-2.22Q538.14-2.22 538.67-2.64L538.67-2.64Q539.02-2.17 539.02-1.48 539.02-0.78 538.32-0.15 537.62 0.49 536.23 0.49 534.84 0.49 533.64-0.29L533.64-0.29Q532.59 0.49 531.78 0.49 530.96 0.49 530.36 0.33 529.76 0.17 529.25-0.17L529.25-0.17Q528.1-0.93 527.83-2.32ZM529.37-22.73L529.37-6.47Q530.79-7.03 530.86-11.87L530.86-11.87Q530.86-12.89 530.86-14.21 530.86-15.53 530.85-16.47 530.84-17.41 530.81-18.26L530.81-18.26Q530.71-21.34 530.25-21.94 529.79-22.53 529.37-22.73L529.37-22.73ZM520.36-8.2L520.36-8.2Q520.36-7.18 520.58-6.2 520.8-5.22 521.24-4.49L521.24-4.49Q522.22-2.95 524-2.95L524-2.95Q525.34-2.95 526.22-4.05L526.22-4.05Q527.05-5.13 527.05-6.81L527.05-6.81 527.05-14.77Q525.49-13.87 523.05-13.53L523.05-13.53Q520.36-13.11 520.36-8.2ZM516.7-2.71L516.7-2.71Q516.94-2.88 516.94-3.15L516.94-3.15Q516.94-3.52 516.6-4.17L516.6-4.17Q515.38-6.42 515.38-7.86 515.38-9.3 515.49-9.94 515.6-10.57 515.79-11.02 515.97-11.47 516.2-11.82 516.43-12.16 516.6-12.43L516.6-12.43Q516.92-12.99 516.92-13.2 516.92-13.4 516.7-13.55L516.7-13.55Q515.7-13.09 515.24-12.45L515.24-12.45Q514.41-11.33 514.02-9.55L514.02-9.55Q513.92-9.03 512.31-8.3L512.31-8.3Q513.87-7.59 514.02-7.06L514.02-7.06Q514.85-4.15 516.7-2.71ZM547-0.59L547-0.59Q545.34 1 543.8 1L543.8 1Q542.94 1 542.63 0.37L542.63 0.37Q543.19-0.2 543.19-0.76 543.19-1.32 543.02-1.61L543.02-1.61 542.7-2.17 543.09-1.44Q542.5-1.71 542.19-2.34 541.87-2.98 541.87-3.89 541.87-4.81 542.89-5.98L542.89-5.98Q542.41-6.67 542.41-7.5 542.41-8.33 542.69-8.87 542.97-9.42 543.41-9.86L543.41-9.86Q544.38-10.79 545.48-10.79L545.48-10.79Q546.21-10.79 546.53-10.28L546.53-10.28Q545.87-9.57 545.87-8.04 545.87-6.52 546.4-5.44 546.92-4.37 547.83-3.61L547.83-3.61Q549.73-2 552.51-2L552.51-2Q555.61-2 556.81-4.27L556.81-4.27Q557.15-4.96 557.15-5.65 557.15-6.35 556.83-6.9 556.52-7.45 556-7.96L556-7.96Q555.15-8.79 553.39-9.86L553.39-9.86Q551.71-11.06 549.41-11.06L549.41-11.06Q547.92-11.06 547.41-10.82L547.41-10.82Q547.73-11.55 547.73-12.28 547.73-13.01 546.75-13.88 545.78-14.75 545.01-15.63 544.24-16.5 543.77-17.38L543.77-17.38Q542.85-19.04 542.85-20.9 542.85-22.75 543.61-24.18 544.38-25.61 545.78-26.64L545.78-26.64Q548.68-28.81 553.22-28.81L553.22-28.81Q555.42-28.81 556.24-28.61 557.05-28.42 557.54-28.25L557.54-28.25Q558.2-28 559.15-28 560.11-28 560.48-28.42 560.86-28.83 560.86-29.19 560.86-29.54 560.79-29.74L560.79-29.74Q560.94-29.79 561.23-29.79 561.52-29.79 561.9-29.61 562.28-29.44 562.57-29.15L562.57-29.15Q563.16-28.49 563.16-27.75 563.16-27 562.87-26.61L562.87-26.61Q563.55-25.98 563.55-24.8 563.55-23.63 562.57-22.83L562.57-22.83Q562.79-22.39 562.79-21.75 562.79-21.12 562.11-20.53 561.42-19.95 560.81-19.95L560.81-19.95Q559.76-19.95 559.4-20.21L559.4-20.21Q559.72-21 559.72-21.91 559.72-22.83 559.23-23.66 558.74-24.49 557.98-25L557.98-25Q556.57-25.98 554.61-25.98L554.61-25.98Q552.15-25.98 551.29-24.41L551.29-24.41Q551.02-23.93 551.02-23.35 551.02-22.78 551.18-22.3 551.34-21.83 551.71-21.34L551.71-21.34Q552.42-20.39 553.71-19.53L553.71-19.53Q555.39-18.43 556.05-18.43L556.05-18.43Q557.47-18.43 558.52-19.12L558.52-19.12Q558.23-17.94 558.23-17.48L558.23-17.48Q558.23-16.77 559.35-15.84L559.35-15.84Q562.5-13.67 563.65-11.87L563.65-11.87Q564.74-10.11 564.74-7.96 564.74-5.81 563.79-4.28 562.84-2.76 561.2-1.66L561.2-1.66Q557.81 0.61 552.98 0.61L552.98 0.61Q549.68 0.61 547-0.59ZM546.14-22.95L546.14-22.95Q545.43-22.61 545.43-21.06 545.43-19.51 546.43-18.1 547.44-16.7 549.61-14.94L549.61-14.94Q550.12-14.55 550.12-14.18L550.12-14.18Q550.12-13.62 550.02-13.28L550.02-13.28Q550.32-13.35 551.05-13.43L551.05-13.43Q552.83-13.6 555.47-11.77L555.47-11.77Q559.67-9.18 559.67-6.32L559.67-6.32Q559.67-5.25 559.37-4.71L559.37-4.71Q560.25-4.88 560.72-6.2L560.72-6.2Q560.84-6.59 560.84-7.01L560.84-7.01Q560.84-8.98 558.7-11.02 556.57-13.06 552.56-14.97L552.56-14.97Q545.92-18.33 546.14-22.95ZM572.46-0.29L572.46-0.29Q571.33 0.49 569.91 0.49 568.48 0.49 567.78-0.15 567.09-0.78 567.09-1.37L567.09-1.37Q567.09-2.17 567.43-2.64L567.43-2.64Q567.97-2.22 568.8-2.22L568.8-2.22Q570.21-2.22 570.82-3.86L570.82-3.86 570.82-11.35Q570.82-12.43 570.38-12.92L570.38-12.92Q569.7-13.67 567.84-14.58L567.84-14.58Q569.55-15.36 570.02-15.82L570.02-15.82Q570.82-16.63 570.82-17.8L570.82-17.8 570.82-31.62Q570.82-34.4 568.55-34.4L568.55-34.4Q567.72-34.4 567.18-33.98L567.18-33.98Q566.84-34.45 566.84-34.95 566.84-35.45 567.1-35.91 567.35-36.38 567.89-36.77L567.89-36.77Q569.04-37.6 570.8-37.6 572.55-37.6 573.53-37.38L573.53-37.38Q574.87-39.06 576.56-39.06L576.56-39.06Q579.07-39.06 579.07-36.43L579.07-36.43 579.07-15.99 586.13-22.51Q587.74-24.17 587.74-24.9 587.74-25.63 586.81-25.63 585.88-25.63 585.08-25.17L585.08-25.17Q584.81-25.61 584.81-26.31 584.81-27 585.54-27.66 586.28-28.32 587.62-28.32 588.96-28.32 589.99-27.49L589.99-27.49Q590.94-28.32 592.06-28.32 593.18-28.32 594.01-27.66L594.01-27.66Q594.84-28.32 595.97-28.32 597.09-28.32 597.84-27.73 598.58-27.15 598.58-26.17L598.58-26.17Q598.58-25.27 598.34-24.93L598.34-24.93Q597.68-25.59 596.71-25.59 595.75-25.59 595.15-25.31 594.55-25.02 593.84-24.5 593.14-23.97 592.28-23.22L592.28-23.22 588.23-19.7 595.68-5.05Q596.36-3.59 596.88-2.91 597.41-2.22 598.23-2.22 599.04-2.22 599.58-2.64L599.58-2.64Q599.92-2.17 599.92-1.48 599.92-0.78 599.23-0.15 598.53 0.49 597.02 0.49 595.5 0.49 594.09-0.34L594.09-0.34Q592.94 0.49 591.56 0.49 590.18 0.49 589.16-0.24L589.16-0.24Q588.2 0.49 587.02 0.49 585.84 0.49 585.13-0.09 584.42-0.66 584.42-1.54 584.42-2.42 584.79-2.73L584.79-2.73Q585.74-2 586.69-2.49L586.69-2.49Q587.03-2.66 587.3-3.15L587.3-3.15 582.13-14.4 579.07-11.74 579.07-3.49Q579.54-2.29 580.61-2.29L580.61-2.29Q581.17-2.29 581.73-2.73L581.73-2.73Q582.1-2.42 582.1-1.53 582.1-0.63 581.39-0.07 580.68 0.49 579.49 0.49 578.29 0.49 577.34-0.24L577.34-0.24Q576.34 0.49 574.97 0.49 573.6 0.49 572.46-0.29ZM574.51-13.65L574.51-15.11 574.53-18.36 574.53-23.14Q574.53-27.69 574.36-28.44L574.36-28.44Q574.02-29.93 573.12-30.52L573.12-30.52 573.12-22.29Q573.12-17.24 573.01-16.66 572.9-16.09 572.82-15.82L572.82-15.82Q572.6-15.06 571.16-14.58L571.16-14.58Q572.63-14.06 572.82-13.35L572.82-13.35Q573.12-12.18 573.12-8.08L573.12-8.08 573.12-6.49Q574.41-7.32 574.48-10.89L574.48-10.89 574.48-12.35Q574.51-13.09 574.51-13.65L574.51-13.65ZM584.2-16.19L588.62-6.47Q588.94-6.88 588.94-7.59 588.94-8.3 588.83-8.86 588.72-9.42 588.55-9.99L588.55-9.99Q588.23-10.89 587.62-12.13L587.62-12.13 585.3-17.16 584.2-16.19Z" opacity="1" transform="matrix(1,0,0,1,0,0)" fill="#0080ff" className="undefined-text-1" data-fill-palette-color="secondary" id="text-1"></path></svg></g></svg></g></svg></g></svg></g><g></g></svg></g><defs></defs></svg><rect width="395.52" height="211.98692052267626" fill="none" stroke="none" visibility="hidden"></rect></g></svg></g></svg>