<?xml version="1.0"?>
<svg viewBox="0 0 64 64" xmlns="http://www.w3.org/2000/svg" fill="#475569">
	<title />
	<g id="Target">
		<path d="M53.8086,15.8237a1,1,0,0,0,1.0234-.2417l6.875-6.875A1,1,0,0,0,61.1416,7.01l-3.6328-.5191L56.99,2.8584A1,1,0,0,0,55.293,2.293L48.418,9.168a.9994.9994,0,0,0-.2412,1.0234l1.0544,3.1633L47.359,15.2269a27.0437,27.0437,0,1,0,1.4141,1.4141l1.8718-1.8718ZM54,35a25.0375,25.0375,0,1,1-8.0544-18.36L41.688,20.8979a19.0737,19.0737,0,1,0,1.4141,1.4141L47.36,18.0544A24.9022,24.9022,0,0,1,54,35Zm-25.707.707a.9995.9995,0,0,0,1.414,0l4.1781-4.1781a6.0185,6.0185,0,1,1-1.414-1.414L28.293,34.293A.9994.9994,0,0,0,28.293,35.707Zm5.6046-7.0186a8.0277,8.0277,0,1,0,1.414,1.414l6.377-6.3769a17.0637,17.0637,0,1,1-1.4141-1.4141ZM55.293,5.1211l.3418,2.3955a1,1,0,0,0,.8486.8481l2.3955.3423-5.0244,5.024-2.6885-.8965-.8965-2.69Z" />
	</g>
</svg>
